<?xml version="1.0" encoding="utf-8"?>
<!-- Generator: Adobe Illustrator 23.1.1, SVG Export Plug-In . SVG Version: 6.00 Build 0)  -->
<svg version="1.1" id="Layer_1" xmlns="http://www.w3.org/2000/svg" xmlns:xlink="http://www.w3.org/1999/xlink" x="0px" y="0px"
	 width="129.2px" height="29px" viewBox="0 0 129.2 29" style="enable-background:new 0 0 129.2 29;" xml:space="preserve">
<style type="text/css">
	.st0{fill:#33C0E1;}
	.st1{fill:#FFFFFF;}
	.st2{fill:#00548C;}
</style>
<g>
	<g>
		<path class="st0" d="M18.3,5.8h-1.8l-0.7,2.7h0.9c1,0,1.8,0.7,1.6,1.8c-0.2,1.1-0.3,1.2-0.6,2.5c-0.4,1.5-1.1,2.1-2.4,2.5
			l-9.7,3.1l-1,3.9c0,0,8.7-2.8,11.5-3.6c3-1,4.6-2.2,5.2-4.1c0.2-0.6,0.5-1.9,0.8-3.5C22.8,7.8,20.6,5.8,18.3,5.8z"/>
		<path class="st0" d="M5.5,5.8L4.8,8.5h3.3l-2.2,8.7l4.3-1.4l1.6-6.6c0.1-0.3-0.3-0.7-0.3-0.7h3.3l0.7-2.7
			C15.5,5.8,5.5,5.8,5.5,5.8z"/>
	</g>
	<polygon class="st0" points="123.4,29 0,27.7 0,27.7 122.3,27.6 129.2,0 129.2,0 	"/>
	<path class="st1" d="M120.7,7c0.2,0,0.4,0,0.4-0.2s-0.2-0.2-0.3-0.2h-0.3V7H120.7z M120.4,7.9h-0.2V6.4h0.6c0.4,0,0.5,0.1,0.5,0.4
		s-0.2,0.4-0.4,0.4l0.4,0.7H121l-0.4-0.7h-0.3v0.7H120.4z M120.7,8.2c0.6,0,1.1-0.5,1.1-1.1S121.3,6,120.7,6s-1.1,0.5-1.1,1.1
		C119.6,7.8,120.1,8.2,120.7,8.2 M119.4,7.1c0-0.8,0.6-1.3,1.3-1.3c0.7,0,1.3,0.6,1.3,1.3c0,0.8-0.6,1.3-1.3,1.3
		C120,8.4,119.4,7.9,119.4,7.1"/>
	<path class="st2" d="M44.4,9.1h-1.7c-4.4,0-5.4,2.9-6,5.6c-0.4,1.8-0.5,3.5,0.1,4.8s1.9,2.1,3.9,2.1h5.1l0.7-2.7c0,0-4,0-4.4,0
		c-1.9,0-2.8-0.4-2.1-3.1h7.3c0,0,0.2-1,0.5-1.8C48.3,11.5,47,9.1,44.4,9.1z M44.8,13.7h-4.4c0.4-1.8,1-2.3,2.4-2.3h0.4
		C45.4,11.4,44.8,13.7,44.8,13.7z"/>
	<path class="st2" d="M71.4,12.1c-0.3,1.3-2.4,9.4-2.4,9.4h-3.6c0,0,1.9-7.8,2.2-8.9c0.2-0.8-0.2-1.1-0.8-1.1c-1,0-3,0-3,0
		s0.4,0.4,0.3,0.8c-0.1,0.4-2.3,9.2-2.3,9.2h-3.6l3.5-14.2c0.2-0.7-0.5-1.5-0.5-1.5h4.5L64.9,9H69C71.4,9.1,71.9,10.4,71.4,12.1z"/>
	<path class="st2" d="M35,8.5c0,0,0.4,0.4,0.3,0.8c-0.1,0.4-3.1,12.2-3.1,12.2h-4.1l3.3-13h-4.8l0.7-2.7h13.2l-0.7,2.7H35z"/>
	<path class="st2" d="M85.2,5.8h-9c0,0,0.7,0.7,0.5,1.5c-0.5,2-3.5,14.2-3.5,14.2h8.6c3,0,4.3-1.5,5.1-3.4c0.8-1.9,1.6-5.3,2-6.9
		C89.6,7.8,87.4,5.8,85.2,5.8z M85.1,10.3c-0.3,1.1-1.3,5.1-1.6,6.5c-0.4,1.5-1,2-2.4,2H78c0,0,2.3-9.1,2.4-9.5
		c0-0.4-0.4-0.8-0.4-0.8h3.4C84.5,8.5,85.4,9.2,85.1,10.3z"/>
	<path class="st2" d="M97.8,9.1h-6.5l-0.6,2.4h4.8c0.6,0,1,0.3,0.9,1l-0.1,0.6h-2.7c-1.9,0-4.3,0.7-5.1,3.8c0,0.2-0.1,0.3-0.1,0.4
		c-0.1,0.2-0.1,0.5-0.1,0.8c0,2,1.8,3.4,3.4,3.4c2.4,0,6,0,6,0s1.9-7.8,2.3-9.5C100.5,10.4,100,9.1,97.8,9.1z M94.9,18.8h-2.1
		c-1,0-1.9-0.4-1.5-1.8s1.3-1.7,2.2-1.7h2.2L94.9,18.8z"/>
	<path class="st2" d="M117.4,9.1h-6.5l-0.6,2.4h4.8c0.6,0,1,0.3,0.9,1l-0.1,0.6h-2.7c-1.9,0-4.3,0.7-5.1,3.8c0,0.2-0.1,0.3-0.1,0.4
		c-0.1,0.2-0.1,0.5-0.1,0.8c0,2,1.8,3.4,3.4,3.4c2.4,0,2.4,0,2.4,0h3.5c0,0,1.9-7.8,2.3-9.5C120.1,10.4,119.5,9.1,117.4,9.1z
		 M114.4,18.8h-2.1c-1,0-1.9-0.4-1.5-1.8s1.3-1.7,2.2-1.7h2.2L114.4,18.8z"/>
	<path class="st2" d="M52.3,14.7c0.6-2.4,1.7-3.2,3.1-3.2h3.9l0.6-2.4h-5.1c-4.4,0-5.4,2.9-6,5.6c-0.4,1.8-0.5,3.5,0.1,4.8
		s1.9,2.1,3.9,2.1h4.1l0.7-2.7c0,0-3,0-3.5,0C51.8,18.8,51.7,17.1,52.3,14.7z"/>
	<path class="st2" d="M104.9,18.8h1.9l-0.7,2.7h-4.3c-0.8,0-1.5-0.6-1.2-1.9c0.2-1,2-8.1,2-8.1H101l0.6-2.4h1.6l0.2-0.9
		c0.2-0.7-0.5-1.5-0.5-1.5h4.4l-0.6,2.4h2.3l-0.6,2.4h-2.8c0,0,0.4,0.4,0.3,0.8c0,0.2-1.2,4.6-1.5,5.8
		C104.4,18.4,104.5,18.8,104.9,18.8z"/>
</g>
</svg>
